<svg width="500" height="750" viewBox="0 0 500 750" fill="none" xmlns="http://www.w3.org/2000/svg">
<g clip-path="url(#clip0_102_10)">
<rect width="500" height="750" fill="white"/>
<rect width="500" height="750" fill="#020916"/>
<rect x="122.051" y="170.627" width="141.575" height="181.216" transform="rotate(5.21184 122.051 170.627)" fill="#79C142" stroke="#79C142" stroke-width="6.60682"/>
<path d="M204.641 285.316L227.731 287.423C226.578 294.949 223.88 301.477 219.637 307.008C215.447 312.544 209.906 316.659 203.015 319.353C196.176 322.051 188.149 322.98 178.933 322.14C171.725 321.482 165.377 319.657 159.888 316.665C154.403 313.621 149.841 309.571 146.201 304.514C142.612 299.463 140.065 293.52 138.56 286.686C137.055 279.852 136.679 272.317 137.43 264.079L138.141 256.279C138.893 248.042 140.653 240.701 143.421 234.257C146.245 227.766 149.905 222.363 154.399 218.049C158.945 213.739 164.191 210.584 170.136 208.583C176.081 206.581 182.58 205.902 189.633 206.545C199.003 207.4 206.751 209.82 212.877 213.805C219.054 217.795 223.646 222.938 226.654 229.234C229.713 235.535 231.255 242.528 231.281 250.213L208.113 248.1C208.269 243.546 207.718 239.628 206.46 236.347C205.206 233.014 203.082 230.406 200.087 228.524C197.149 226.594 193.105 225.395 187.956 224.925C184.095 224.573 180.657 224.986 177.643 226.165C174.628 227.344 172.009 229.311 169.784 232.067C167.56 234.823 165.755 238.396 164.368 242.786C163.038 247.129 162.1 252.287 161.555 258.259L160.83 266.213C160.299 272.031 160.269 277.194 160.741 281.701C161.217 286.157 162.217 289.986 163.742 293.188C165.323 296.343 167.485 298.825 170.227 300.632C173.025 302.393 176.484 303.461 180.603 303.837C185.442 304.278 189.503 303.87 192.784 302.612C196.066 301.354 198.669 299.281 200.593 296.394C202.569 293.511 203.918 289.819 204.641 285.316Z" fill="#020916"/>
<rect x="264.526" y="167.555" width="138.023" height="177.681" transform="rotate(5.2056 264.526 167.555)" stroke="#79C142" stroke-width="10.2239"/>
<path d="M319.695 202.008L309.447 314.5L286.268 312.388L296.517 199.896L319.695 202.008ZM360.129 254.147L358.481 272.226L307.335 267.566L308.982 249.487L360.129 254.147ZM369.915 206.583L368.261 224.739L311.706 219.587L313.36 201.431L369.915 206.583Z" fill="#79C142"/>
<path d="M184.657 401.163V434H177.891L164.698 411.989V434H157.932V401.163H164.698L177.914 423.197V401.163H184.657ZM189.1 422.047V421.573C189.1 419.784 189.355 418.138 189.866 416.634C190.378 415.116 191.122 413.8 192.099 412.688C193.076 411.575 194.279 410.711 195.708 410.094C197.136 409.463 198.775 409.147 200.624 409.147C202.473 409.147 204.12 409.463 205.563 410.094C207.006 410.711 208.217 411.575 209.194 412.688C210.186 413.8 210.938 415.116 211.449 416.634C211.961 418.138 212.216 419.784 212.216 421.573V422.047C212.216 423.821 211.961 425.468 211.449 426.986C210.938 428.49 210.186 429.805 209.194 430.933C208.217 432.045 207.014 432.91 205.586 433.526C204.157 434.143 202.518 434.451 200.669 434.451C198.82 434.451 197.173 434.143 195.73 433.526C194.302 432.91 193.091 432.045 192.099 430.933C191.122 429.805 190.378 428.49 189.866 426.986C189.355 425.468 189.1 423.821 189.1 422.047ZM195.595 421.573V422.047C195.595 423.069 195.685 424.024 195.865 424.911C196.046 425.798 196.332 426.58 196.722 427.257C197.128 427.918 197.655 428.437 198.301 428.813C198.948 429.189 199.737 429.377 200.669 429.377C201.571 429.377 202.346 429.189 202.992 428.813C203.639 428.437 204.157 427.918 204.548 427.257C204.939 426.58 205.225 425.798 205.405 424.911C205.601 424.024 205.698 423.069 205.698 422.047V421.573C205.698 420.581 205.601 419.649 205.405 418.777C205.225 417.89 204.932 417.108 204.526 416.431C204.135 415.74 203.616 415.199 202.97 414.808C202.323 414.417 201.541 414.221 200.624 414.221C199.707 414.221 198.925 414.417 198.279 414.808C197.647 415.199 197.128 415.74 196.722 416.431C196.332 417.108 196.046 417.89 195.865 418.777C195.685 419.649 195.595 420.581 195.595 421.573ZM235.31 401.163V434H228.567V401.163H235.31ZM247.737 414.65V434H241.219V409.598H247.331L247.737 414.65ZM246.834 420.942H245.03C245.03 419.243 245.233 417.679 245.639 416.251C246.06 414.808 246.669 413.56 247.466 412.507C248.278 411.44 249.278 410.613 250.465 410.027C251.653 409.44 253.029 409.147 254.593 409.147C255.675 409.147 256.667 409.312 257.57 409.643C258.472 409.959 259.246 410.463 259.892 411.154C260.554 411.831 261.065 412.718 261.426 413.815C261.787 414.898 261.967 416.198 261.967 417.717V434H255.472V418.439C255.472 417.326 255.322 416.469 255.021 415.868C254.72 415.266 254.292 414.845 253.736 414.605C253.194 414.364 252.54 414.244 251.773 414.244C250.932 414.244 250.195 414.417 249.563 414.763C248.947 415.108 248.436 415.59 248.03 416.206C247.624 416.807 247.323 417.514 247.128 418.326C246.932 419.138 246.834 420.01 246.834 420.942ZM261.358 420.198L259.035 420.491C259.035 418.897 259.231 417.416 259.622 416.048C260.028 414.68 260.622 413.477 261.403 412.44C262.2 411.402 263.185 410.598 264.358 410.027C265.531 409.44 266.884 409.147 268.417 409.147C269.59 409.147 270.658 409.32 271.62 409.666C272.582 409.996 273.402 410.53 274.078 411.267C274.77 411.989 275.296 412.936 275.657 414.109C276.033 415.281 276.221 416.717 276.221 418.416V434H269.703V418.416C269.703 417.288 269.553 416.431 269.252 415.845C268.966 415.244 268.545 414.83 267.989 414.605C267.448 414.364 266.801 414.244 266.049 414.244C265.268 414.244 264.583 414.402 263.997 414.717C263.411 415.018 262.922 415.439 262.531 415.98C262.14 416.522 261.847 417.153 261.652 417.875C261.456 418.581 261.358 419.356 261.358 420.198ZM294.421 428.497V417.627C294.421 416.845 294.293 416.176 294.037 415.62C293.782 415.048 293.383 414.605 292.842 414.289C292.316 413.973 291.632 413.815 290.79 413.815C290.068 413.815 289.444 413.943 288.918 414.199C288.392 414.439 287.986 414.793 287.7 415.259C287.414 415.71 287.271 416.244 287.271 416.86H280.776C280.776 415.823 281.017 414.838 281.498 413.906C281.979 412.973 282.678 412.154 283.595 411.447C284.512 410.726 285.602 410.162 286.865 409.756C288.143 409.35 289.572 409.147 291.15 409.147C293.045 409.147 294.729 409.463 296.202 410.094C297.676 410.726 298.833 411.673 299.675 412.936C300.532 414.199 300.961 415.777 300.961 417.672V428.114C300.961 429.452 301.044 430.549 301.209 431.406C301.374 432.248 301.615 432.985 301.931 433.617V434H295.368C295.052 433.338 294.811 432.512 294.646 431.519C294.496 430.512 294.421 429.505 294.421 428.497ZM295.278 419.138L295.323 422.814H291.692C290.835 422.814 290.09 422.912 289.459 423.107C288.828 423.303 288.309 423.581 287.903 423.942C287.497 424.287 287.196 424.693 287.001 425.159C286.82 425.625 286.73 426.137 286.73 426.693C286.73 427.249 286.858 427.753 287.114 428.204C287.369 428.64 287.737 428.986 288.219 429.241C288.7 429.482 289.264 429.602 289.91 429.602C290.887 429.602 291.737 429.407 292.459 429.016C293.18 428.625 293.736 428.144 294.127 427.572C294.533 427.001 294.744 426.46 294.759 425.949L296.473 428.7C296.232 429.317 295.902 429.956 295.481 430.617C295.075 431.279 294.556 431.903 293.924 432.489C293.293 433.06 292.534 433.534 291.647 433.91C290.76 434.271 289.707 434.451 288.489 434.451C286.941 434.451 285.535 434.143 284.272 433.526C283.024 432.895 282.032 432.03 281.295 430.933C280.573 429.82 280.212 428.557 280.212 427.144C280.212 425.866 280.453 424.731 280.934 423.739C281.415 422.746 282.122 421.912 283.054 421.235C284.001 420.544 285.182 420.025 286.595 419.679C288.008 419.318 289.647 419.138 291.511 419.138H295.278ZM321.416 409.598H327.302V433.188C327.302 435.413 326.806 437.3 325.814 438.849C324.837 440.412 323.468 441.593 321.709 442.39C319.95 443.201 317.905 443.607 315.575 443.607C314.553 443.607 313.47 443.472 312.327 443.201C311.2 442.931 310.117 442.51 309.08 441.939C308.057 441.367 307.2 440.646 306.509 439.773L309.373 435.94C310.125 436.812 310.997 437.488 311.989 437.969C312.981 438.465 314.079 438.714 315.282 438.714C316.455 438.714 317.447 438.495 318.259 438.059C319.071 437.638 319.695 437.015 320.131 436.188C320.567 435.376 320.785 434.391 320.785 433.233V415.236L321.416 409.598ZM304.998 422.092V421.619C304.998 419.754 305.223 418.063 305.674 416.544C306.14 415.011 306.794 413.695 307.636 412.598C308.493 411.5 309.531 410.65 310.749 410.049C311.967 409.448 313.342 409.147 314.876 409.147C316.5 409.147 317.86 409.448 318.958 410.049C320.055 410.65 320.958 411.507 321.664 412.62C322.371 413.718 322.92 415.018 323.311 416.522C323.716 418.01 324.032 419.641 324.258 421.416V422.453C324.032 424.152 323.694 425.731 323.243 427.189C322.792 428.648 322.198 429.925 321.461 431.023C320.725 432.106 319.807 432.948 318.71 433.549C317.627 434.15 316.334 434.451 314.831 434.451C313.327 434.451 311.967 434.143 310.749 433.526C309.546 432.91 308.516 432.045 307.659 430.933C306.802 429.82 306.14 428.512 305.674 427.009C305.223 425.505 304.998 423.866 304.998 422.092ZM311.493 421.619V422.092C311.493 423.1 311.591 424.039 311.786 424.911C311.982 425.783 312.282 426.558 312.688 427.234C313.109 427.896 313.628 428.414 314.244 428.79C314.876 429.151 315.62 429.332 316.477 429.332C317.665 429.332 318.635 429.084 319.386 428.587C320.138 428.076 320.702 427.377 321.078 426.49C321.454 425.603 321.672 424.581 321.732 423.423V420.468C321.702 419.521 321.574 418.672 321.348 417.92C321.123 417.153 320.807 416.499 320.401 415.958C319.995 415.417 319.469 414.996 318.823 414.695C318.176 414.394 317.409 414.244 316.522 414.244C315.665 414.244 314.921 414.439 314.289 414.83C313.673 415.206 313.154 415.725 312.733 416.386C312.327 417.048 312.019 417.83 311.809 418.732C311.598 419.619 311.493 420.581 311.493 421.619ZM343.585 434.451C341.691 434.451 339.992 434.15 338.489 433.549C336.985 432.933 335.707 432.083 334.655 431C333.617 429.918 332.82 428.663 332.264 427.234C331.708 425.791 331.43 424.257 331.43 422.633V421.731C331.43 419.882 331.693 418.191 332.219 416.657C332.745 415.123 333.497 413.793 334.474 412.665C335.466 411.538 336.669 410.673 338.083 410.072C339.496 409.455 341.09 409.147 342.864 409.147C344.593 409.147 346.126 409.433 347.464 410.004C348.803 410.575 349.923 411.387 350.825 412.44C351.742 413.492 352.434 414.755 352.9 416.228C353.366 417.687 353.599 419.311 353.599 421.1V423.806H334.203V419.476H347.216V418.98C347.216 418.078 347.051 417.273 346.72 416.567C346.404 415.845 345.923 415.274 345.277 414.853C344.63 414.432 343.803 414.221 342.796 414.221C341.939 414.221 341.202 414.409 340.586 414.785C339.969 415.161 339.466 415.687 339.075 416.364C338.699 417.04 338.413 417.837 338.218 418.754C338.037 419.657 337.947 420.649 337.947 421.731V422.633C337.947 423.611 338.083 424.513 338.353 425.34C338.639 426.167 339.037 426.881 339.548 427.482C340.075 428.084 340.706 428.55 341.443 428.881C342.195 429.211 343.044 429.377 343.991 429.377C345.164 429.377 346.254 429.151 347.261 428.7C348.284 428.234 349.163 427.535 349.9 426.603L353.058 430.031C352.546 430.767 351.847 431.474 350.96 432.151C350.088 432.827 349.036 433.384 347.803 433.82C346.57 434.241 345.164 434.451 343.585 434.451Z" fill="#818181"/>
</g>
<defs>
<clipPath id="clip0_102_10">
<rect width="500" height="750" fill="white"/>
</clipPath>
</defs>
</svg>
