<svg width="950" height="48" viewBox="0 0 950 48" fill="none" xmlns="http://www.w3.org/2000/svg">
<path d="M28.5009 3.13V6.98H33.6709V9.422H28.5009V13.492H34.3309V16H25.4209V0.621999H34.3309V3.13H28.5009ZM46.5459 16L43.2239 10.83L40.2099 16H36.7339L41.5739 8.256L36.6679 0.644H40.2099L43.5319 5.792L46.5239 0.644H49.9999L45.1819 8.366L50.0879 16H46.5459ZM63.8499 5.396C63.8499 6.21733 63.6519 6.98733 63.2559 7.706C62.8746 8.42467 62.2659 9.004 61.4299 9.444C60.6086 9.884 59.5672 10.104 58.3059 10.104H55.7319V16H52.6519V0.644H58.3059C59.4939 0.644 60.5059 0.849333 61.3419 1.26C62.1779 1.67067 62.8012 2.23533 63.2119 2.954C63.6372 3.67267 63.8499 4.48667 63.8499 5.396ZM58.1739 7.618C59.0246 7.618 59.6552 7.42733 60.0659 7.046C60.4766 6.65 60.6819 6.1 60.6819 5.396C60.6819 3.9 59.8459 3.152 58.1739 3.152H55.7319V7.618H58.1739ZM69.3367 13.558H74.3967V16H66.2567V0.644H69.3367V13.558ZM83.7023 16.154C82.265 16.154 80.945 15.8167 79.7423 15.142C78.5397 14.4673 77.5863 13.536 76.8823 12.348C76.1783 11.1453 75.8263 9.78867 75.8263 8.278C75.8263 6.782 76.1783 5.44 76.8823 4.252C77.5863 3.04933 78.5397 2.11067 79.7423 1.436C80.945 0.761333 82.265 0.424 83.7023 0.424C85.1543 0.424 86.4743 0.761333 87.6623 1.436C88.865 2.11067 89.811 3.04933 90.5003 4.252C91.2043 5.44 91.5563 6.782 91.5563 8.278C91.5563 9.78867 91.2043 11.1453 90.5003 12.348C89.811 13.536 88.865 14.4673 87.6623 15.142C86.4597 15.8167 85.1397 16.154 83.7023 16.154ZM83.7023 13.404C84.6263 13.404 85.4403 13.1987 86.1443 12.788C86.8483 12.3627 87.3983 11.7613 87.7943 10.984C88.1903 10.2067 88.3883 9.30467 88.3883 8.278C88.3883 7.25133 88.1903 6.35667 87.7943 5.594C87.3983 4.81667 86.8483 4.22267 86.1443 3.812C85.4403 3.40133 84.6263 3.196 83.7023 3.196C82.7783 3.196 81.957 3.40133 81.2383 3.812C80.5343 4.22267 79.9843 4.81667 79.5883 5.594C79.1923 6.35667 78.9943 7.25133 78.9943 8.278C78.9943 9.30467 79.1923 10.2067 79.5883 10.984C79.9843 11.7613 80.5343 12.3627 81.2383 12.788C81.957 13.1987 82.7783 13.404 83.7023 13.404ZM101.988 16L98.5998 10.016H97.1478V16H94.0678V0.644H99.8318C101.02 0.644 102.032 0.856666 102.868 1.282C103.704 1.69267 104.327 2.25733 104.738 2.976C105.163 3.68 105.376 4.472 105.376 5.352C105.376 6.364 105.082 7.28067 104.496 8.102C103.909 8.90867 103.036 9.466 101.878 9.774L105.552 16H101.988ZM97.1478 7.706H99.7218C100.558 7.706 101.181 7.508 101.592 7.112C102.002 6.70133 102.208 6.13667 102.208 5.418C102.208 4.714 102.002 4.17133 101.592 3.79C101.181 3.394 100.558 3.196 99.7218 3.196H97.1478V7.706ZM111.462 3.13V6.98H116.632V9.422H111.462V13.492H117.292V16H108.382V0.621999H117.292V3.13H111.462ZM136.223 0.644V3.13H132.131V16H129.051V3.13H124.959V0.644H136.223ZM151.428 0.644V16H148.348V9.466H141.77V16H138.69V0.644H141.77V6.958H148.348V0.644H151.428ZM157.759 3.13V6.98H162.929V9.422H157.759V13.492H163.589V16H154.679V0.621999H163.589V3.13H157.759ZM175.107 0.644V10.148C175.107 11.1893 175.378 11.9887 175.921 12.546C176.463 13.0887 177.226 13.36 178.209 13.36C179.206 13.36 179.976 13.0887 180.519 12.546C181.061 11.9887 181.333 11.1893 181.333 10.148V0.644H184.435V10.126C184.435 11.4313 184.149 12.5387 183.577 13.448C183.019 14.3427 182.264 15.0173 181.311 15.472C180.372 15.9267 179.323 16.154 178.165 16.154C177.021 16.154 175.979 15.9267 175.041 15.472C174.117 15.0173 173.383 14.3427 172.841 13.448C172.298 12.5387 172.027 11.4313 172.027 10.126V0.644H175.107ZM190.711 13.558H195.771V16H187.631V0.644H190.711V13.558ZM208.398 0.644V3.13H204.306V16H201.226V3.13H197.134V0.644H208.398ZM213.945 0.644V16H210.865V0.644H213.945ZM233.95 0.644V16H230.87V6.012L226.756 16H224.424L220.288 6.012V16H217.208V0.644H220.706L225.59 12.062L230.474 0.644H233.95ZM246.632 13.074H240.516L239.504 16H236.27L241.792 0.621999H245.378L250.9 16H247.644L246.632 13.074ZM245.796 10.61L243.574 4.186L241.352 10.61H245.796ZM263.634 0.644V3.13H259.542V16H256.462V3.13H252.37V0.644H263.634ZM269.181 3.13V6.98H274.351V9.422H269.181V13.492H275.011V16H266.101V0.621999H275.011V3.13H269.181ZM300.234 0.644V16H297.154V6.012L293.04 16H290.708L286.572 6.012V16H283.492V0.644H286.99L291.874 12.062L296.758 0.644H300.234ZM310.627 16.154C309.19 16.154 307.87 15.8167 306.667 15.142C305.465 14.4673 304.511 13.536 303.807 12.348C303.103 11.1453 302.751 9.78867 302.751 8.278C302.751 6.782 303.103 5.44 303.807 4.252C304.511 3.04933 305.465 2.11067 306.667 1.436C307.87 0.761333 309.19 0.424 310.627 0.424C312.079 0.424 313.399 0.761333 314.587 1.436C315.79 2.11067 316.736 3.04933 317.425 4.252C318.129 5.44 318.481 6.782 318.481 8.278C318.481 9.78867 318.129 11.1453 317.425 12.348C316.736 13.536 315.79 14.4673 314.587 15.142C313.385 15.8167 312.065 16.154 310.627 16.154ZM310.627 13.404C311.551 13.404 312.365 13.1987 313.069 12.788C313.773 12.3627 314.323 11.7613 314.719 10.984C315.115 10.2067 315.313 9.30467 315.313 8.278C315.313 7.25133 315.115 6.35667 314.719 5.594C314.323 4.81667 313.773 4.22267 313.069 3.812C312.365 3.40133 311.551 3.196 310.627 3.196C309.703 3.196 308.882 3.40133 308.163 3.812C307.459 4.22267 306.909 4.81667 306.513 5.594C306.117 6.35667 305.919 7.25133 305.919 8.278C305.919 9.30467 306.117 10.2067 306.513 10.984C306.909 11.7613 307.459 12.3627 308.163 12.788C308.882 13.1987 309.703 13.404 310.627 13.404ZM334.787 0.644L329.155 16H325.415L319.783 0.644H323.083L327.307 12.854L331.509 0.644H334.787ZM339.933 0.644V16H336.853V0.644H339.933ZM346.276 3.13V6.98H351.446V9.422H346.276V13.492H352.106V16H343.196V0.621999H352.106V3.13H346.276ZM365.955 0.644C367.569 0.644 368.984 0.959333 370.201 1.59C371.433 2.22067 372.379 3.12267 373.039 4.296C373.714 5.45467 374.051 6.804 374.051 8.344C374.051 9.884 373.714 11.2333 373.039 12.392C372.379 13.536 371.433 14.4233 370.201 15.054C368.984 15.6847 367.569 16 365.955 16H360.587V0.644H365.955ZM365.845 13.382C367.459 13.382 368.705 12.942 369.585 12.062C370.465 11.182 370.905 9.94267 370.905 8.344C370.905 6.74533 370.465 5.49867 369.585 4.604C368.705 3.69467 367.459 3.24 365.845 3.24H363.667V13.382H365.845ZM379.657 3.13V6.98H384.827V9.422H379.657V13.492H385.487V16H376.577V0.621999H385.487V3.13H379.657ZM393.808 16.154C392.737 16.154 391.769 15.9707 390.904 15.604C390.053 15.2373 389.379 14.7093 388.88 14.02C388.381 13.3307 388.125 12.5167 388.11 11.578H391.41C391.454 12.2087 391.674 12.7073 392.07 13.074C392.481 13.4407 393.038 13.624 393.742 13.624C394.461 13.624 395.025 13.4553 395.436 13.118C395.847 12.766 396.052 12.3113 396.052 11.754C396.052 11.2993 395.913 10.9253 395.634 10.632C395.355 10.3387 395.003 10.1113 394.578 9.95C394.167 9.774 393.595 9.58333 392.862 9.378C391.865 9.08467 391.051 8.79867 390.42 8.52C389.804 8.22667 389.269 7.794 388.814 7.222C388.374 6.63533 388.154 5.858 388.154 4.89C388.154 3.98067 388.381 3.18867 388.836 2.514C389.291 1.83933 389.929 1.326 390.75 0.973999C391.571 0.607333 392.51 0.424 393.566 0.424C395.15 0.424 396.433 0.812666 397.416 1.59C398.413 2.35267 398.963 3.42333 399.066 4.802H395.678C395.649 4.274 395.421 3.84133 394.996 3.504C394.585 3.152 394.035 2.976 393.346 2.976C392.745 2.976 392.261 3.13 391.894 3.438C391.542 3.746 391.366 4.19333 391.366 4.78C391.366 5.19067 391.498 5.53533 391.762 5.814C392.041 6.078 392.378 6.298 392.774 6.474C393.185 6.63533 393.757 6.826 394.49 7.046C395.487 7.33933 396.301 7.63267 396.932 7.926C397.563 8.21933 398.105 8.65933 398.56 9.246C399.015 9.83267 399.242 10.6027 399.242 11.556C399.242 12.3773 399.029 13.14 398.604 13.844C398.179 14.548 397.555 15.1127 396.734 15.538C395.913 15.9487 394.937 16.154 393.808 16.154ZM412.582 0.644V3.13H408.49V16H405.41V3.13H401.318V0.644H412.582ZM418.129 0.644V16H415.049V0.644H418.129ZM434.527 16H431.447L424.473 5.462V16H421.393V0.621999H424.473L431.447 11.182V0.621999H434.527V16ZM447.206 13.074H441.09L440.078 16H436.844L442.366 0.621999H445.952L451.474 16H448.218L447.206 13.074ZM446.37 10.61L444.148 4.186L441.926 10.61H446.37ZM464.208 0.644V3.13H460.116V16H457.036V3.13H452.944V0.644H464.208ZM469.756 0.644V16H466.676V0.644H469.756ZM480.147 16.154C478.709 16.154 477.389 15.8167 476.187 15.142C474.984 14.4673 474.031 13.536 473.327 12.348C472.623 11.1453 472.271 9.78867 472.271 8.278C472.271 6.782 472.623 5.44 473.327 4.252C474.031 3.04933 474.984 2.11067 476.187 1.436C477.389 0.761333 478.709 0.424 480.147 0.424C481.599 0.424 482.919 0.761333 484.107 1.436C485.309 2.11067 486.255 3.04933 486.945 4.252C487.649 5.44 488.001 6.782 488.001 8.278C488.001 9.78867 487.649 11.1453 486.945 12.348C486.255 13.536 485.309 14.4673 484.107 15.142C482.904 15.8167 481.584 16.154 480.147 16.154ZM480.147 13.404C481.071 13.404 481.885 13.1987 482.589 12.788C483.293 12.3627 483.843 11.7613 484.239 10.984C484.635 10.2067 484.833 9.30467 484.833 8.278C484.833 7.25133 484.635 6.35667 484.239 5.594C483.843 4.81667 483.293 4.22267 482.589 3.812C481.885 3.40133 481.071 3.196 480.147 3.196C479.223 3.196 478.401 3.40133 477.683 3.812C476.979 4.22267 476.429 4.81667 476.033 5.594C475.637 6.35667 475.439 7.25133 475.439 8.278C475.439 9.30467 475.637 10.2067 476.033 10.984C476.429 11.7613 476.979 12.3627 477.683 12.788C478.401 13.1987 479.223 13.404 480.147 13.404ZM503.646 16H500.566L493.592 5.462V16H490.512V0.621999H493.592L500.566 11.182V0.621999H503.646V16ZM532.898 0.644L528.608 16H524.978L522.096 5.066L519.082 16L515.474 16.022L511.338 0.644H514.638L517.344 12.568L520.468 0.644H523.9L526.848 12.502L529.576 0.644H532.898ZM538.209 0.644V16H535.129V0.644H538.209ZM551.922 0.644V3.13H547.83V16H544.75V3.13H540.658V0.644H551.922ZM567.127 0.644V16H564.047V9.466H557.469V16H554.389V0.644H557.469V6.958H564.047V0.644H567.127ZM582.969 16.154C581.532 16.154 580.212 15.8167 579.009 15.142C577.806 14.4673 576.853 13.536 576.149 12.348C575.445 11.1453 575.093 9.78867 575.093 8.278C575.093 6.782 575.445 5.44 576.149 4.252C576.853 3.04933 577.806 2.11067 579.009 1.436C580.212 0.761333 581.532 0.424 582.969 0.424C584.421 0.424 585.741 0.761333 586.929 1.436C588.132 2.11067 589.078 3.04933 589.767 4.252C590.471 5.44 590.823 6.782 590.823 8.278C590.823 9.78867 590.471 11.1453 589.767 12.348C589.078 13.536 588.132 14.4673 586.929 15.142C585.726 15.8167 584.406 16.154 582.969 16.154ZM582.969 13.404C583.893 13.404 584.707 13.1987 585.411 12.788C586.115 12.3627 586.665 11.7613 587.061 10.984C587.457 10.2067 587.655 9.30467 587.655 8.278C587.655 7.25133 587.457 6.35667 587.061 5.594C586.665 4.81667 586.115 4.22267 585.411 3.812C584.707 3.40133 583.893 3.196 582.969 3.196C582.045 3.196 581.224 3.40133 580.505 3.812C579.801 4.22267 579.251 4.81667 578.855 5.594C578.459 6.35667 578.261 7.25133 578.261 8.278C578.261 9.30467 578.459 10.2067 578.855 10.984C579.251 11.7613 579.801 12.3627 580.505 12.788C581.224 13.1987 582.045 13.404 582.969 13.404ZM596.371 0.644V10.148C596.371 11.1893 596.642 11.9887 597.185 12.546C597.727 13.0887 598.49 13.36 599.473 13.36C600.47 13.36 601.24 13.0887 601.783 12.546C602.325 11.9887 602.597 11.1893 602.597 10.148V0.644H605.699V10.126C605.699 11.4313 605.413 12.5387 604.841 13.448C604.283 14.3427 603.528 15.0173 602.575 15.472C601.636 15.9267 600.587 16.154 599.429 16.154C598.285 16.154 597.243 15.9267 596.305 15.472C595.381 15.0173 594.647 14.3427 594.105 13.448C593.562 12.5387 593.291 11.4313 593.291 10.126V0.644H596.371ZM616.814 16L613.426 10.016H611.974V16H608.894V0.644H614.658C615.846 0.644 616.858 0.856666 617.694 1.282C618.53 1.69267 619.154 2.25733 619.564 2.976C619.99 3.68 620.202 4.472 620.202 5.352C620.202 6.364 619.909 7.28067 619.322 8.102C618.736 8.90867 617.863 9.466 616.704 9.774L620.378 16H616.814ZM611.974 7.706H614.548C615.384 7.706 616.008 7.508 616.418 7.112C616.829 6.70133 617.034 6.13667 617.034 5.418C617.034 4.714 616.829 4.17133 616.418 3.79C616.008 3.394 615.384 3.196 614.548 3.196H611.974V7.706ZM645.412 0.644V16H642.332V6.012L638.218 16H635.886L631.75 6.012V16H628.67V0.644H632.168L637.052 12.062L641.936 0.644H645.412ZM655.805 16.154C654.368 16.154 653.048 15.8167 651.845 15.142C650.643 14.4673 649.689 13.536 648.985 12.348C648.281 11.1453 647.929 9.78867 647.929 8.278C647.929 6.782 648.281 5.44 648.985 4.252C649.689 3.04933 650.643 2.11067 651.845 1.436C653.048 0.761333 654.368 0.424 655.805 0.424C657.257 0.424 658.577 0.761333 659.765 1.436C660.968 2.11067 661.914 3.04933 662.603 4.252C663.307 5.44 663.659 6.782 663.659 8.278C663.659 9.78867 663.307 11.1453 662.603 12.348C661.914 13.536 660.968 14.4673 659.765 15.142C658.563 15.8167 657.243 16.154 655.805 16.154ZM655.805 13.404C656.729 13.404 657.543 13.1987 658.247 12.788C658.951 12.3627 659.501 11.7613 659.897 10.984C660.293 10.2067 660.491 9.30467 660.491 8.278C660.491 7.25133 660.293 6.35667 659.897 5.594C659.501 4.81667 658.951 4.22267 658.247 3.812C657.543 3.40133 656.729 3.196 655.805 3.196C654.881 3.196 654.06 3.40133 653.341 3.812C652.637 4.22267 652.087 4.81667 651.691 5.594C651.295 6.35667 651.097 7.25133 651.097 8.278C651.097 9.30467 651.295 10.2067 651.691 10.984C652.087 11.7613 652.637 12.3627 653.341 12.788C654.06 13.1987 654.881 13.404 655.805 13.404ZM679.965 0.644L674.333 16H670.593L664.961 0.644H668.261L672.485 12.854L676.687 0.644H679.965ZM685.111 0.644V16H682.031V0.644H685.111ZM691.455 3.13V6.98H696.625V9.422H691.455V13.492H697.285V16H688.375V0.621999H697.285V3.13H691.455ZM711.134 0.644C712.747 0.644 714.162 0.959333 715.38 1.59C716.612 2.22067 717.558 3.12267 718.218 4.296C718.892 5.45467 719.23 6.804 719.23 8.344C719.23 9.884 718.892 11.2333 718.218 12.392C717.558 13.536 716.612 14.4233 715.38 15.054C714.162 15.6847 712.747 16 711.134 16H705.766V0.644H711.134ZM711.024 13.382C712.637 13.382 713.884 12.942 714.764 12.062C715.644 11.182 716.084 9.94267 716.084 8.344C716.084 6.74533 715.644 5.49867 714.764 4.604C713.884 3.69467 712.637 3.24 711.024 3.24H708.846V13.382H711.024ZM731.171 13.074H725.055L724.043 16H720.809L726.331 0.621999H729.917L735.439 16H732.183L731.171 13.074ZM730.335 10.61L728.113 4.186L725.891 10.61H730.335ZM748.173 0.644V3.13H744.081V16H741.001V3.13H736.909V0.644H748.173ZM760.057 13.074H753.941L752.929 16H749.695L755.217 0.621999H758.803L764.325 16H761.069L760.057 13.074ZM759.221 10.61L756.999 4.186L754.777 10.61H759.221ZM775.321 8.124C776.186 8.28533 776.897 8.718 777.455 9.422C778.012 10.126 778.291 10.9327 778.291 11.842C778.291 12.6633 778.085 13.3893 777.675 14.02C777.279 14.636 776.699 15.12 775.937 15.472C775.174 15.824 774.272 16 773.231 16H766.609V0.644H772.945C773.986 0.644 774.881 0.812666 775.629 1.15C776.391 1.48733 776.963 1.95667 777.345 2.558C777.741 3.15933 777.939 3.84133 777.939 4.604C777.939 5.49867 777.697 6.24667 777.213 6.848C776.743 7.44933 776.113 7.87467 775.321 8.124ZM769.689 6.98H772.505C773.238 6.98 773.803 6.81867 774.199 6.496C774.595 6.15867 774.793 5.682 774.793 5.066C774.793 4.45 774.595 3.97333 774.199 3.636C773.803 3.29867 773.238 3.13 772.505 3.13H769.689V6.98ZM772.791 13.492C773.539 13.492 774.118 13.316 774.529 12.964C774.954 12.612 775.167 12.1133 775.167 11.468C775.167 10.808 774.947 10.2947 774.507 9.928C774.067 9.54667 773.473 9.356 772.725 9.356H769.689V13.492H772.791ZM790.381 13.074H784.265L783.253 16H780.019L785.541 0.621999H789.127L794.649 16H791.393L790.381 13.074ZM789.545 10.61L787.323 4.186L785.101 10.61H789.545ZM802.235 16.154C801.165 16.154 800.197 15.9707 799.331 15.604C798.481 15.2373 797.806 14.7093 797.307 14.02C796.809 13.3307 796.552 12.5167 796.537 11.578H799.837C799.881 12.2087 800.101 12.7073 800.497 13.074C800.908 13.4407 801.465 13.624 802.169 13.624C802.888 13.624 803.453 13.4553 803.863 13.118C804.274 12.766 804.479 12.3113 804.479 11.754C804.479 11.2993 804.34 10.9253 804.061 10.632C803.783 10.3387 803.431 10.1113 803.005 9.95C802.595 9.774 802.023 9.58333 801.289 9.378C800.292 9.08467 799.478 8.79867 798.847 8.52C798.231 8.22667 797.696 7.794 797.241 7.222C796.801 6.63533 796.581 5.858 796.581 4.89C796.581 3.98067 796.809 3.18867 797.263 2.514C797.718 1.83933 798.356 1.326 799.177 0.973999C799.999 0.607333 800.937 0.424 801.993 0.424C803.577 0.424 804.861 0.812666 805.843 1.59C806.841 2.35267 807.391 3.42333 807.493 4.802H804.105C804.076 4.274 803.849 3.84133 803.423 3.504C803.013 3.152 802.463 2.976 801.773 2.976C801.172 2.976 800.688 3.13 800.321 3.438C799.969 3.746 799.793 4.19333 799.793 4.78C799.793 5.19067 799.925 5.53533 800.189 5.814C800.468 6.078 800.805 6.298 801.201 6.474C801.612 6.63533 802.184 6.826 802.917 7.046C803.915 7.33933 804.729 7.63267 805.359 7.926C805.99 8.21933 806.533 8.65933 806.987 9.246C807.442 9.83267 807.669 10.6027 807.669 11.556C807.669 12.3773 807.457 13.14 807.031 13.844C806.606 14.548 805.983 15.1127 805.161 15.538C804.34 15.9487 803.365 16.154 802.235 16.154ZM813.64 3.13V6.98H818.81V9.422H813.64V13.492H819.47V16H810.56V0.621999H819.47V3.13H813.64ZM848.477 0.644L844.187 16H840.557L837.675 5.066L834.661 16L831.053 16.022L826.917 0.644H830.217L832.923 12.568L836.047 0.644H839.479L842.427 12.502L845.155 0.644H848.477ZM853.788 3.13V6.98H858.958V9.422H853.788V13.492H859.618V16H850.708V0.621999H859.618V3.13H853.788ZM871.349 8.124C872.214 8.28533 872.926 8.718 873.483 9.422C874.04 10.126 874.319 10.9327 874.319 11.842C874.319 12.6633 874.114 13.3893 873.703 14.02C873.307 14.636 872.728 15.12 871.965 15.472C871.202 15.824 870.3 16 869.259 16H862.637V0.644H868.973C870.014 0.644 870.909 0.812666 871.657 1.15C872.42 1.48733 872.992 1.95667 873.373 2.558C873.769 3.15933 873.967 3.84133 873.967 4.604C873.967 5.49867 873.725 6.24667 873.241 6.848C872.772 7.44933 872.141 7.87467 871.349 8.124ZM865.717 6.98H868.533C869.266 6.98 869.831 6.81867 870.227 6.496C870.623 6.15867 870.821 5.682 870.821 5.066C870.821 4.45 870.623 3.97333 870.227 3.636C869.831 3.29867 869.266 3.13 868.533 3.13H865.717V6.98ZM868.819 13.492C869.567 13.492 870.146 13.316 870.557 12.964C870.982 12.612 871.195 12.1133 871.195 11.468C871.195 10.808 870.975 10.2947 870.535 9.928C870.095 9.54667 869.501 9.356 868.753 9.356H865.717V13.492H868.819ZM882.296 16.154C881.225 16.154 880.257 15.9707 879.392 15.604C878.541 15.2373 877.866 14.7093 877.368 14.02C876.869 13.3307 876.612 12.5167 876.598 11.578H879.898C879.942 12.2087 880.162 12.7073 880.558 13.074C880.968 13.4407 881.526 13.624 882.23 13.624C882.948 13.624 883.513 13.4553 883.924 13.118C884.334 12.766 884.54 12.3113 884.54 11.754C884.54 11.2993 884.4 10.9253 884.122 10.632C883.843 10.3387 883.491 10.1113 883.066 9.95C882.655 9.774 882.083 9.58333 881.35 9.378C880.352 9.08467 879.538 8.79867 878.908 8.52C878.292 8.22667 877.756 7.794 877.302 7.222C876.862 6.63533 876.642 5.858 876.642 4.89C876.642 3.98067 876.869 3.18867 877.324 2.514C877.778 1.83933 878.416 1.326 879.238 0.973999C880.059 0.607333 880.998 0.424 882.054 0.424C883.638 0.424 884.921 0.812666 885.904 1.59C886.901 2.35267 887.451 3.42333 887.554 4.802H884.166C884.136 4.274 883.909 3.84133 883.484 3.504C883.073 3.152 882.523 2.976 881.834 2.976C881.232 2.976 880.748 3.13 880.382 3.438C880.03 3.746 879.854 4.19333 879.854 4.78C879.854 5.19067 879.986 5.53533 880.25 5.814C880.528 6.078 880.866 6.298 881.262 6.474C881.672 6.63533 882.244 6.826 882.978 7.046C883.975 7.33933 884.789 7.63267 885.42 7.926C886.05 8.21933 886.593 8.65933 887.048 9.246C887.502 9.83267 887.73 10.6027 887.73 11.556C887.73 12.3773 887.517 13.14 887.092 13.844C886.666 14.548 886.043 15.1127 885.222 15.538C884.4 15.9487 883.425 16.154 882.296 16.154ZM893.7 0.644V16H890.62V0.644H893.7ZM907.413 0.644V3.13H903.321V16H900.241V3.13H896.149V0.644H907.413ZM912.96 3.13V6.98H918.13V9.422H912.96V13.492H918.79V16H909.88V0.621999H918.79V3.13H912.96ZM925.175 12.766L922.601 18.948H920.621L922.051 12.766H925.175ZM12.1645 36.396C12.1645 37.2173 11.9665 37.9873 11.5705 38.706C11.1892 39.4247 10.5805 40.004 9.74452 40.444C8.92318 40.884 7.88185 41.104 6.62052 41.104H4.04652V47H0.966517V31.644H6.62052C7.80852 31.644 8.82052 31.8493 9.65652 32.26C10.4925 32.6707 11.1159 33.2353 11.5265 33.954C11.9519 34.6727 12.1645 35.4867 12.1645 36.396ZM6.48852 38.618C7.33918 38.618 7.96985 38.4273 8.38052 38.046C8.79118 37.65 8.99652 37.1 8.99652 36.396C8.99652 34.9 8.16052 34.152 6.48852 34.152H4.04652V38.618H6.48852ZM22.4913 47L19.1033 41.016H17.6513V47H14.5713V31.644H20.3353C21.5233 31.644 22.5353 31.8567 23.3713 32.282C24.2073 32.6927 24.8306 33.2573 25.2413 33.976C25.6666 34.68 25.8793 35.472 25.8793 36.352C25.8793 37.364 25.586 38.2807 24.9993 39.102C24.4126 39.9087 23.54 40.466 22.3813 40.774L26.0553 47H22.4913ZM17.6513 38.706H20.2253C21.0613 38.706 21.6846 38.508 22.0953 38.112C22.506 37.7013 22.7113 37.1367 22.7113 36.418C22.7113 35.714 22.506 35.1713 22.0953 34.79C21.6846 34.394 21.0613 34.196 20.2253 34.196H17.6513V38.706ZM36.013 47.154C34.5757 47.154 33.2557 46.8167 32.053 46.142C30.8504 45.4673 29.897 44.536 29.193 43.348C28.489 42.1453 28.137 40.7887 28.137 39.278C28.137 37.782 28.489 36.44 29.193 35.252C29.897 34.0493 30.8504 33.1107 32.053 32.436C33.2557 31.7613 34.5757 31.424 36.013 31.424C37.465 31.424 38.785 31.7613 39.973 32.436C41.1757 33.1107 42.1217 34.0493 42.811 35.252C43.515 36.44 43.867 37.782 43.867 39.278C43.867 40.7887 43.515 42.1453 42.811 43.348C42.1217 44.536 41.1757 45.4673 39.973 46.142C38.7704 46.8167 37.4504 47.154 36.013 47.154ZM36.013 44.404C36.937 44.404 37.751 44.1987 38.455 43.788C39.159 43.3627 39.709 42.7613 40.105 41.984C40.501 41.2067 40.699 40.3047 40.699 39.278C40.699 38.2513 40.501 37.3567 40.105 36.594C39.709 35.8167 39.159 35.2227 38.455 34.812C37.751 34.4013 36.937 34.196 36.013 34.196C35.089 34.196 34.2677 34.4013 33.549 34.812C32.845 35.2227 32.295 35.8167 31.899 36.594C31.503 37.3567 31.305 38.2513 31.305 39.278C31.305 40.3047 31.503 41.2067 31.899 41.984C32.295 42.7613 32.845 43.3627 33.549 43.788C34.2677 44.1987 35.089 44.404 36.013 44.404ZM60.1725 31.644L54.5405 47H50.8005L45.1685 31.644H48.4685L52.6925 43.854L56.8945 31.644H60.1725ZM65.3191 31.644V47H62.2391V31.644H65.3191ZM73.9501 31.644C75.5635 31.644 76.9788 31.9593 78.1961 32.59C79.4281 33.2207 80.3741 34.1227 81.0341 35.296C81.7088 36.4547 82.0461 37.804 82.0461 39.344C82.0461 40.884 81.7088 42.2333 81.0341 43.392C80.3741 44.536 79.4281 45.4233 78.1961 46.054C76.9788 46.6847 75.5635 47 73.9501 47H68.5821V31.644H73.9501ZM73.8401 44.382C75.4535 44.382 76.7001 43.942 77.5801 43.062C78.4601 42.182 78.9001 40.9427 78.9001 39.344C78.9001 37.7453 78.4601 36.4987 77.5801 35.604C76.7001 34.6947 75.4535 34.24 73.8401 34.24H71.6621V44.382H73.8401ZM87.6517 31.644V47H84.5717V31.644H87.6517ZM104.049 47H100.969L93.9947 36.462V47H90.9147V31.622H93.9947L100.969 42.182V31.622H104.049V47ZM118.004 36.264C117.652 35.6187 117.168 35.1273 116.552 34.79C115.936 34.4527 115.218 34.284 114.396 34.284C113.487 34.284 112.68 34.4893 111.976 34.9C111.272 35.3107 110.722 35.8973 110.326 36.66C109.93 37.4227 109.732 38.3027 109.732 39.3C109.732 40.3267 109.93 41.2213 110.326 41.984C110.737 42.7467 111.302 43.3333 112.02 43.744C112.739 44.1547 113.575 44.36 114.528 44.36C115.702 44.36 116.662 44.052 117.41 43.436C118.158 42.8053 118.65 41.9327 118.884 40.818H113.604V38.464H121.92V41.148C121.715 42.2187 121.275 43.2087 120.6 44.118C119.926 45.0273 119.053 45.7607 117.982 46.318C116.926 46.8607 115.738 47.132 114.418 47.132C112.937 47.132 111.595 46.802 110.392 46.142C109.204 45.4673 108.266 44.536 107.576 43.348C106.902 42.16 106.564 40.8107 106.564 39.3C106.564 37.7893 106.902 36.44 107.576 35.252C108.266 34.0493 109.204 33.118 110.392 32.458C111.595 31.7833 112.93 31.446 114.396 31.446C116.127 31.446 117.63 31.8713 118.906 32.722C120.182 33.558 121.062 34.7387 121.546 36.264H118.004ZM129.133 39.3C129.133 37.7893 129.471 36.44 130.145 35.252C130.835 34.0493 131.766 33.118 132.939 32.458C134.127 31.7833 135.455 31.446 136.921 31.446C138.637 31.446 140.141 31.886 141.431 32.766C142.722 33.646 143.624 34.8633 144.137 36.418H140.595C140.243 35.6847 139.745 35.1347 139.099 34.768C138.469 34.4013 137.735 34.218 136.899 34.218C136.005 34.218 135.205 34.4307 134.501 34.856C133.812 35.2667 133.269 35.8533 132.873 36.616C132.492 37.3787 132.301 38.2733 132.301 39.3C132.301 40.312 132.492 41.2067 132.873 41.984C133.269 42.7467 133.812 43.3407 134.501 43.766C135.205 44.1767 136.005 44.382 136.899 44.382C137.735 44.382 138.469 44.1987 139.099 43.832C139.745 43.4507 140.243 42.8933 140.595 42.16H144.137C143.624 43.7293 142.722 44.954 141.431 45.834C140.155 46.6993 138.652 47.132 136.921 47.132C135.455 47.132 134.127 46.802 132.939 46.142C131.766 45.4673 130.835 44.536 130.145 43.348C129.471 42.16 129.133 40.8107 129.133 39.3ZM154.116 47.154C152.679 47.154 151.359 46.8167 150.156 46.142C148.953 45.4673 148 44.536 147.296 43.348C146.592 42.1453 146.24 40.7887 146.24 39.278C146.24 37.782 146.592 36.44 147.296 35.252C148 34.0493 148.953 33.1107 150.156 32.436C151.359 31.7613 152.679 31.424 154.116 31.424C155.568 31.424 156.888 31.7613 158.076 32.436C159.279 33.1107 160.225 34.0493 160.914 35.252C161.618 36.44 161.97 37.782 161.97 39.278C161.97 40.7887 161.618 42.1453 160.914 43.348C160.225 44.536 159.279 45.4673 158.076 46.142C156.873 46.8167 155.553 47.154 154.116 47.154ZM154.116 44.404C155.04 44.404 155.854 44.1987 156.558 43.788C157.262 43.3627 157.812 42.7613 158.208 41.984C158.604 41.2067 158.802 40.3047 158.802 39.278C158.802 38.2513 158.604 37.3567 158.208 36.594C157.812 35.8167 157.262 35.2227 156.558 34.812C155.854 34.4013 155.04 34.196 154.116 34.196C153.192 34.196 152.371 34.4013 151.652 34.812C150.948 35.2227 150.398 35.8167 150.002 36.594C149.606 37.3567 149.408 38.2513 149.408 39.278C149.408 40.3047 149.606 41.2067 150.002 41.984C150.398 42.7613 150.948 43.3627 151.652 43.788C152.371 44.1987 153.192 44.404 154.116 44.404ZM181.224 31.644V47H178.144V37.012L174.03 47H171.698L167.562 37.012V47H164.482V31.644H167.98L172.864 43.062L177.748 31.644H181.224ZM195.687 36.396C195.687 37.2173 195.489 37.9873 195.093 38.706C194.711 39.4247 194.103 40.004 193.267 40.444C192.445 40.884 191.404 41.104 190.143 41.104H187.569V47H184.489V31.644H190.143C191.331 31.644 192.343 31.8493 193.179 32.26C194.015 32.6707 194.638 33.2353 195.049 33.954C195.474 34.6727 195.687 35.4867 195.687 36.396ZM190.011 38.618C190.861 38.618 191.492 38.4273 191.903 38.046C192.313 37.65 192.519 37.1 192.519 36.396C192.519 34.9 191.683 34.152 190.011 34.152H187.569V38.618H190.011ZM206.013 47L202.625 41.016H201.173V47H198.093V31.644H203.857C205.045 31.644 206.057 31.8567 206.893 32.282C207.729 32.6927 208.353 33.2573 208.763 33.976C209.189 34.68 209.401 35.472 209.401 36.352C209.401 37.364 209.108 38.2807 208.521 39.102C207.935 39.9087 207.062 40.466 205.903 40.774L209.577 47H206.013ZM201.173 38.706H203.747C204.583 38.706 205.207 38.508 205.617 38.112C206.028 37.7013 206.233 37.1367 206.233 36.418C206.233 35.714 206.028 35.1713 205.617 34.79C205.207 34.394 204.583 34.196 203.747 34.196H201.173V38.706ZM215.487 34.13V37.98H220.657V40.422H215.487V44.492H221.317V47H212.407V31.622H221.317V34.13H215.487ZM237.074 31.644V47H233.994V40.466H227.416V47H224.336V31.644H227.416V37.958H233.994V31.644H237.074ZM243.406 34.13V37.98H248.576V40.422H243.406V44.492H249.236V47H240.326V31.622H249.236V34.13H243.406ZM265.389 47H262.309L255.335 36.462V47H252.255V31.622H255.335L262.309 42.182V31.622H265.389V47ZM273.954 47.154C272.884 47.154 271.916 46.9707 271.05 46.604C270.2 46.2373 269.525 45.7093 269.026 45.02C268.528 44.3307 268.271 43.5167 268.256 42.578H271.556C271.6 43.2087 271.82 43.7073 272.216 44.074C272.627 44.4407 273.184 44.624 273.888 44.624C274.607 44.624 275.172 44.4553 275.582 44.118C275.993 43.766 276.198 43.3113 276.198 42.754C276.198 42.2993 276.059 41.9253 275.78 41.632C275.502 41.3387 275.15 41.1113 274.724 40.95C274.314 40.774 273.742 40.5833 273.008 40.378C272.011 40.0847 271.197 39.7987 270.566 39.52C269.95 39.2267 269.415 38.794 268.96 38.222C268.52 37.6353 268.3 36.858 268.3 35.89C268.3 34.9807 268.528 34.1887 268.982 33.514C269.437 32.8393 270.075 32.326 270.896 31.974C271.718 31.6073 272.656 31.424 273.712 31.424C275.296 31.424 276.58 31.8127 277.562 32.59C278.56 33.3527 279.11 34.4233 279.212 35.802H275.824C275.795 35.274 275.568 34.8413 275.142 34.504C274.732 34.152 274.182 33.976 273.492 33.976C272.891 33.976 272.407 34.13 272.04 34.438C271.688 34.746 271.512 35.1933 271.512 35.78C271.512 36.1907 271.644 36.5353 271.908 36.814C272.187 37.078 272.524 37.298 272.92 37.474C273.331 37.6353 273.903 37.826 274.636 38.046C275.634 38.3393 276.448 38.6327 277.078 38.926C277.709 39.2193 278.252 39.6593 278.706 40.246C279.161 40.8327 279.388 41.6027 279.388 42.556C279.388 43.3773 279.176 44.14 278.75 44.844C278.325 45.548 277.702 46.1127 276.88 46.538C276.059 46.9487 275.084 47.154 273.954 47.154ZM285.359 31.644V47H282.279V31.644H285.359ZM302.416 31.644L296.784 47H293.044L287.412 31.644H290.712L294.936 43.854L299.138 31.644H302.416ZM307.562 34.13V37.98H312.732V40.422H307.562V44.492H313.392V47H304.482V31.622H313.392V34.13H307.562ZM331.355 31.644V34.13H324.953V38.068H329.859V40.51H324.953V47H321.873V31.644H331.355ZM336.839 31.644V47H333.759V31.644H336.839ZM343.183 44.558H348.243V47H340.103V31.644H343.183V44.558ZM367.162 31.644V47H364.082V37.012L359.968 47H357.636L353.5 37.012V47H350.42V31.644H353.918L358.802 43.062L363.686 31.644H367.162ZM381.257 31.644C382.871 31.644 384.286 31.9593 385.503 32.59C386.735 33.2207 387.681 34.1227 388.341 35.296C389.016 36.4547 389.353 37.804 389.353 39.344C389.353 40.884 389.016 42.2333 388.341 43.392C387.681 44.536 386.735 45.4233 385.503 46.054C384.286 46.6847 382.871 47 381.257 47H375.889V31.644H381.257ZM381.147 44.382C382.761 44.382 384.007 43.942 384.887 43.062C385.767 42.182 386.207 40.9427 386.207 39.344C386.207 37.7453 385.767 36.4987 384.887 35.604C384.007 34.6947 382.761 34.24 381.147 34.24H378.969V44.382H381.147ZM394.959 34.13V37.98H400.129V40.422H394.959V44.492H400.789V47H391.879V31.622H400.789V34.13H394.959ZM414.258 31.644V34.13H410.166V47H407.086V34.13H402.994V31.644H414.258ZM426.141 44.074H420.025L419.013 47H415.779L421.301 31.622H424.887L430.409 47H427.153L426.141 44.074ZM425.305 41.61L423.083 35.186L420.861 41.61H425.305ZM435.773 31.644V47H432.693V31.644H435.773ZM442.116 44.558H447.176V47H439.036V31.644H442.116V44.558ZM454.656 47.154C453.585 47.154 452.617 46.9707 451.752 46.604C450.901 46.2373 450.227 45.7093 449.728 45.02C449.229 44.3307 448.973 43.5167 448.958 42.578H452.258C452.302 43.2087 452.522 43.7073 452.918 44.074C453.329 44.4407 453.886 44.624 454.59 44.624C455.309 44.624 455.873 44.4553 456.284 44.118C456.695 43.766 456.9 43.3113 456.9 42.754C456.9 42.2993 456.761 41.9253 456.482 41.632C456.203 41.3387 455.851 41.1113 455.426 40.95C455.015 40.774 454.443 40.5833 453.71 40.378C452.713 40.0847 451.899 39.7987 451.268 39.52C450.652 39.2267 450.117 38.794 449.662 38.222C449.222 37.6353 449.002 36.858 449.002 35.89C449.002 34.9807 449.229 34.1887 449.684 33.514C450.139 32.8393 450.777 32.326 451.598 31.974C452.419 31.6073 453.358 31.424 454.414 31.424C455.998 31.424 457.281 31.8127 458.264 32.59C459.261 33.3527 459.811 34.4233 459.914 35.802H456.526C456.497 35.274 456.269 34.8413 455.844 34.504C455.433 34.152 454.883 33.976 454.194 33.976C453.593 33.976 453.109 34.13 452.742 34.438C452.39 34.746 452.214 35.1933 452.214 35.78C452.214 36.1907 452.346 36.5353 452.61 36.814C452.889 37.078 453.226 37.298 453.622 37.474C454.033 37.6353 454.605 37.826 455.338 38.046C456.335 38.3393 457.149 38.6327 457.78 38.926C458.411 39.2193 458.953 39.6593 459.408 40.246C459.863 40.8327 460.09 41.6027 460.09 42.556C460.09 43.3773 459.877 44.14 459.452 44.844C459.027 45.548 458.403 46.1127 457.582 46.538C456.761 46.9487 455.785 47.154 454.656 47.154ZM477.858 44.074H471.742L470.73 47H467.496L473.018 31.622H476.604L482.126 47H478.87L477.858 44.074ZM477.022 41.61L474.8 35.186L472.578 41.61H477.022ZM497.544 47H494.464L487.49 36.462V47H484.41V31.622H487.49L494.464 42.182V31.622H497.544V47ZM506.176 31.644C507.79 31.644 509.205 31.9593 510.422 32.59C511.654 33.2207 512.6 34.1227 513.26 35.296C513.935 36.4547 514.272 37.804 514.272 39.344C514.272 40.884 513.935 42.2333 513.26 43.392C512.6 44.536 511.654 45.4233 510.422 46.054C509.205 46.6847 507.79 47 506.176 47H500.808V31.644H506.176ZM506.066 44.382C507.68 44.382 508.926 43.942 509.806 43.062C510.686 42.182 511.126 40.9427 511.126 39.344C511.126 37.7453 510.686 36.4987 509.806 35.604C508.926 34.6947 507.68 34.24 506.066 34.24H503.888V44.382H506.066ZM531.676 44.074H525.56L524.548 47H521.314L526.836 31.622H530.422L535.944 47H532.688L531.676 44.074ZM530.84 41.61L528.618 35.186L526.396 41.61H530.84ZM551.362 47H548.282L541.308 36.462V47H538.228V31.622H541.308L548.282 42.182V31.622H551.362V47ZM563.168 31.644V47H560.088V31.644H563.168ZM583.173 31.644V47H580.093V37.012L575.979 47H573.647L569.511 37.012V47H566.431V31.644H569.929L574.813 43.062L579.697 31.644H583.173ZM603.18 31.644V47H600.1V37.012L595.986 47H593.654L589.518 37.012V47H586.438V31.644H589.936L594.82 43.062L599.704 31.644H603.18ZM609.525 34.13V37.98H614.695V40.422H609.525V44.492H615.355V47H606.445V31.622H615.355V34.13H609.525ZM626.294 47L622.906 41.016H621.454V47H618.374V31.644H624.138C625.326 31.644 626.338 31.8567 627.174 32.282C628.01 32.6927 628.634 33.2573 629.044 33.976C629.47 34.68 629.682 35.472 629.682 36.352C629.682 37.364 629.389 38.2807 628.802 39.102C628.216 39.9087 627.343 40.466 626.184 40.774L629.858 47H626.294ZM621.454 38.706H624.028C624.864 38.706 625.488 38.508 625.898 38.112C626.309 37.7013 626.514 37.1367 626.514 36.418C626.514 35.714 626.309 35.1713 625.898 34.79C625.488 34.394 624.864 34.196 624.028 34.196H621.454V38.706ZM637.99 47.154C636.919 47.154 635.951 46.9707 635.086 46.604C634.235 46.2373 633.561 45.7093 633.062 45.02C632.563 44.3307 632.307 43.5167 632.292 42.578H635.592C635.636 43.2087 635.856 43.7073 636.252 44.074C636.663 44.4407 637.22 44.624 637.924 44.624C638.643 44.624 639.207 44.4553 639.618 44.118C640.029 43.766 640.234 43.3113 640.234 42.754C640.234 42.2993 640.095 41.9253 639.816 41.632C639.537 41.3387 639.185 41.1113 638.76 40.95C638.349 40.774 637.777 40.5833 637.044 40.378C636.047 40.0847 635.233 39.7987 634.602 39.52C633.986 39.2267 633.451 38.794 632.996 38.222C632.556 37.6353 632.336 36.858 632.336 35.89C632.336 34.9807 632.563 34.1887 633.018 33.514C633.473 32.8393 634.111 32.326 634.932 31.974C635.753 31.6073 636.692 31.424 637.748 31.424C639.332 31.424 640.615 31.8127 641.598 32.59C642.595 33.3527 643.145 34.4233 643.248 35.802H639.86C639.831 35.274 639.603 34.8413 639.178 34.504C638.767 34.152 638.217 33.976 637.528 33.976C636.927 33.976 636.443 34.13 636.076 34.438C635.724 34.746 635.548 35.1933 635.548 35.78C635.548 36.1907 635.68 36.5353 635.944 36.814C636.223 37.078 636.56 37.298 636.956 37.474C637.367 37.6353 637.939 37.826 638.672 38.046C639.669 38.3393 640.483 38.6327 641.114 38.926C641.745 39.2193 642.287 39.6593 642.742 40.246C643.197 40.8327 643.424 41.6027 643.424 42.556C643.424 43.3773 643.211 44.14 642.786 44.844C642.361 45.548 641.737 46.1127 640.916 46.538C640.095 46.9487 639.119 47.154 637.99 47.154ZM649.394 31.644V47H646.314V31.644H649.394ZM666.451 31.644L660.819 47H657.079L651.447 31.644H654.747L658.971 43.854L663.173 31.644H666.451ZM671.598 34.13V37.98H676.768V40.422H671.598V44.492H677.428V47H668.518V31.622H677.428V34.13H671.598ZM685.161 39.3C685.161 37.7893 685.498 36.44 686.173 35.252C686.862 34.0493 687.794 33.118 688.967 32.458C690.155 31.7833 691.482 31.446 692.949 31.446C694.665 31.446 696.168 31.886 697.459 32.766C698.75 33.646 699.652 34.8633 700.165 36.418H696.623C696.271 35.6847 695.772 35.1347 695.127 34.768C694.496 34.4013 693.763 34.218 692.927 34.218C692.032 34.218 691.233 34.4307 690.529 34.856C689.84 35.2667 689.297 35.8533 688.901 36.616C688.52 37.3787 688.329 38.2733 688.329 39.3C688.329 40.312 688.52 41.2067 688.901 41.984C689.297 42.7467 689.84 43.3407 690.529 43.766C691.233 44.1767 692.032 44.382 692.927 44.382C693.763 44.382 694.496 44.1987 695.127 43.832C695.772 43.4507 696.271 42.8933 696.623 42.16H700.165C699.652 43.7293 698.75 44.954 697.459 45.834C696.183 46.6993 694.68 47.132 692.949 47.132C691.482 47.132 690.155 46.802 688.967 46.142C687.794 45.4673 686.862 44.536 686.173 43.348C685.498 42.16 685.161 40.8107 685.161 39.3ZM706.096 31.644V47H703.016V31.644H706.096ZM722.493 47H719.413L712.439 36.462V47H709.359V31.622H712.439L719.413 42.182V31.622H722.493V47ZM728.837 34.13V37.98H734.007V40.422H728.837V44.492H734.667V47H725.757V31.622H734.667V34.13H728.837ZM754.427 31.644V47H751.347V37.012L747.233 47H744.901L740.765 37.012V47H737.685V31.644H741.183L746.067 43.062L750.951 31.644H754.427ZM767.109 44.074H760.993L759.981 47H756.747L762.269 31.622H765.855L771.377 47H768.121L767.109 44.074ZM766.273 41.61L764.051 35.186L761.829 41.61H766.273ZM784.111 31.644V34.13H780.019V47H776.939V34.13H772.847V31.644H784.111ZM789.658 31.644V47H786.578V31.644H789.658ZM792.173 39.3C792.173 37.7893 792.51 36.44 793.185 35.252C793.874 34.0493 794.806 33.118 795.979 32.458C797.167 31.7833 798.494 31.446 799.961 31.446C801.677 31.446 803.18 31.886 804.471 32.766C805.762 33.646 806.664 34.8633 807.177 36.418H803.635C803.283 35.6847 802.784 35.1347 802.139 34.768C801.508 34.4013 800.775 34.218 799.939 34.218C799.044 34.218 798.245 34.4307 797.541 34.856C796.852 35.2667 796.309 35.8533 795.913 36.616C795.532 37.3787 795.341 38.2733 795.341 39.3C795.341 40.312 795.532 41.2067 795.913 41.984C796.309 42.7467 796.852 43.3407 797.541 43.766C798.245 44.1767 799.044 44.382 799.939 44.382C800.775 44.382 801.508 44.1987 802.139 43.832C802.784 43.4507 803.283 42.8933 803.635 42.16H807.177C806.664 43.7293 805.762 44.954 804.471 45.834C803.195 46.6993 801.692 47.132 799.961 47.132C798.494 47.132 797.167 46.802 795.979 46.142C794.806 45.4673 793.874 44.536 793.185 43.348C792.51 42.16 792.173 40.8107 792.173 39.3ZM824.906 44.074H818.79L817.778 47H814.544L820.066 31.622H823.652L829.174 47H825.918L824.906 44.074ZM824.07 41.61L821.848 35.186L819.626 41.61H824.07ZM836.826 31.644C838.439 31.644 839.855 31.9593 841.072 32.59C842.304 33.2207 843.25 34.1227 843.91 35.296C844.585 36.4547 844.922 37.804 844.922 39.344C844.922 40.884 844.585 42.2333 843.91 43.392C843.25 44.536 842.304 45.4233 841.072 46.054C839.855 46.6847 838.439 47 836.826 47H831.458V31.644H836.826ZM836.716 44.382C838.329 44.382 839.576 43.942 840.456 43.062C841.336 42.182 841.776 40.9427 841.776 39.344C841.776 37.7453 841.336 36.4987 840.456 35.604C839.576 34.6947 838.329 34.24 836.716 34.24H834.538V44.382H836.716ZM861.241 31.644L855.609 47H851.869L846.237 31.644H849.537L853.761 43.854L857.963 31.644H861.241ZM866.388 34.13V37.98H871.558V40.422H866.388V44.492H872.218V47H863.308V31.622H872.218V34.13H866.388ZM888.371 47H885.291L878.317 36.462V47H875.237V31.622H878.317L885.291 42.182V31.622H888.371V47ZM902.085 31.644V34.13H897.993V47H894.913V34.13H890.821V31.644H902.085ZM907.588 31.644V41.148C907.588 42.1893 907.859 42.9887 908.402 43.546C908.945 44.0887 909.707 44.36 910.69 44.36C911.687 44.36 912.457 44.0887 913 43.546C913.543 42.9887 913.814 42.1893 913.814 41.148V31.644H916.916V41.126C916.916 42.4313 916.63 43.5387 916.058 44.448C915.501 45.3427 914.745 46.0173 913.792 46.472C912.853 46.9267 911.805 47.154 910.646 47.154C909.502 47.154 908.461 46.9267 907.522 46.472C906.598 46.0173 905.865 45.3427 905.322 44.448C904.779 43.5387 904.508 42.4313 904.508 41.126V31.644H907.588ZM928.032 47L924.644 41.016H923.192V47H920.112V31.644H925.876C927.064 31.644 928.076 31.8567 928.912 32.282C929.748 32.6927 930.371 33.2573 930.782 33.976C931.207 34.68 931.42 35.472 931.42 36.352C931.42 37.364 931.127 38.2807 930.54 39.102C929.953 39.9087 929.081 40.466 927.922 40.774L931.596 47H928.032ZM923.192 38.706H925.766C926.602 38.706 927.225 38.508 927.636 38.112C928.047 37.7013 928.252 37.1367 928.252 36.418C928.252 35.714 928.047 35.1713 927.636 34.79C927.225 34.394 926.602 34.196 925.766 34.196H923.192V38.706ZM937.506 34.13V37.98H942.676V40.422H937.506V44.492H943.336V47H934.426V31.622H943.336V34.13H937.506ZM947.719 47.154C947.161 47.154 946.699 46.9853 946.333 46.648C945.981 46.296 945.805 45.8633 945.805 45.35C945.805 44.8367 945.981 44.4113 946.333 44.074C946.699 43.722 947.161 43.546 947.719 43.546C948.261 43.546 948.709 43.722 949.061 44.074C949.413 44.4113 949.589 44.8367 949.589 45.35C949.589 45.8633 949.413 46.296 949.061 46.648C948.709 46.9853 948.261 47.154 947.719 47.154Z" fill="white"/>
</svg>
