<svg width="338" height="240" viewBox="0 0 338 240" fill="none" xmlns="http://www.w3.org/2000/svg">
<rect x="39.0512" y="21.6273" width="141.575" height="181.216" transform="rotate(5.21184 39.0512 21.6273)" fill="#79C142" stroke="#79C142" stroke-width="6.60682"/>
<path d="M121.641 136.316L144.731 138.423C143.578 145.949 140.88 152.477 136.637 158.008C132.447 163.544 126.906 167.659 120.015 170.353C113.176 173.051 105.149 173.98 95.9333 173.14C88.7255 172.482 82.3769 170.657 76.8875 167.665C71.4029 164.621 66.8406 160.571 63.2007 155.514C59.6122 150.463 57.0655 144.52 55.5604 137.686C54.0554 130.852 53.6786 123.317 54.4299 115.079L55.1414 107.279C55.8928 99.0417 57.6526 91.7008 60.4207 85.2566C63.2451 78.7655 66.9045 73.363 71.3992 69.0489C75.9453 64.7395 81.1908 61.5841 87.1356 59.5826C93.0805 57.5811 99.5796 56.9021 106.633 57.5455C116.003 58.4002 123.751 60.82 129.877 64.805C136.054 68.7947 140.646 73.9377 143.654 80.2339C146.713 86.5348 148.255 93.528 148.281 101.213L125.113 99.1002C125.269 94.5461 124.718 90.6283 123.46 87.3468C122.206 84.0139 120.082 81.4062 117.087 79.5237C114.149 77.5945 110.105 76.395 104.956 75.9254C101.095 75.5732 97.6572 75.9864 94.6425 77.165C91.6279 78.3435 89.0086 80.3109 86.7845 83.0671C84.5604 85.8232 82.755 89.3963 81.3682 93.7862C80.0376 98.1293 79.0999 103.287 78.5552 109.259L77.8296 117.213C77.2989 123.031 77.2693 128.194 77.7406 132.701C78.2167 137.157 79.2172 140.986 80.7421 144.188C82.3231 147.343 84.4848 149.825 87.227 151.632C90.0254 153.393 93.484 154.461 97.6028 154.837C102.442 155.278 106.503 154.87 109.784 153.612C113.066 152.354 115.669 150.281 117.593 147.394C119.569 144.511 120.918 140.819 121.641 136.316Z" fill="#020916"/>
<rect x="181.526" y="18.5547" width="138.023" height="177.681" transform="rotate(5.2056 181.526 18.5547)" fill="#020916" stroke="#79C142" stroke-width="10.2239"/>
<path d="M236.695 53.0078L226.447 165.5L203.268 163.388L213.517 50.8961L236.695 53.0078ZM277.129 105.147L275.481 123.226L224.335 118.566L225.982 100.487L277.129 105.147ZM286.915 57.5831L285.261 75.7394L228.706 70.5869L230.36 52.4306L286.915 57.5831Z" fill="#79C142"/>
</svg>
